<svg width="27" height="27" viewBox="0 0 27 27" fill="none" xmlns="http://www.w3.org/2000/svg">
<path d="M15.0226 22.474L18.3235 19.1731C19.0115 18.4851 20.0939 18.3893 20.892 18.946L25.2685 21.9983C26.1362 22.6035 26.2461 23.846 25.498 24.5942V24.5942C24.2908 25.8013 22.5572 26.3255 20.9396 25.7799C17.9327 24.7659 12.8771 22.5736 8.65189 18.3484C4.42667 14.1232 2.23442 9.06755 1.22035 6.06073C0.674778 4.44307 1.19898 2.70946 2.40614 1.5023V1.5023C3.15426 0.754182 4.39675 0.864047 5.00198 1.73183L8.05431 6.10827C8.61095 6.90638 8.51524 7.98876 7.82719 8.67681L4.52627 11.9777" stroke="white" stroke-linecap="round"/>
</svg>
